<?xml version="1.0" encoding="iso-8859-1"?>
<!-- Generator: Adobe Illustrator 19.0.0, SVG Export Plug-In . SVG Version: 6.00 Build 0)  -->
<svg version="1.1" id="Capa_1" xmlns="http://www.w3.org/2000/svg" xmlns:xlink="http://www.w3.org/1999/xlink" x="0px" y="0px"
	 viewBox="0 0 512 512" style="enable-background:new 0 0 512 512;" xml:space="preserve">
<g>
	<g>
		<g>
			<path d="M367.179,309.199c-8.174,7.429-8.777,20.079-1.348,28.252C379.403,352.383,386,369.226,386,388.943
				c0,20.74-12.522,40.766-35.26,56.388C325.709,462.529,292.063,472,256,472s-69.709-9.471-94.741-26.669
				c-22.738-15.622-35.26-35.647-35.26-56.388c0-11.046-8.954-20-20-20c-11.046,0-20,8.954-20,20
				c0,34.314,18.684,66.048,52.609,89.356C170.239,500.031,211.929,512,256,512c44.069,0,85.76-11.969,117.391-33.7
				C407.316,454.991,426,423.258,426,388.943c0-29.704-10.285-56.08-30.569-78.396C388.002,302.373,375.352,301.77,367.179,309.199z
				"/>
			<path d="M492,236H260.766C188.895,205.001,150,177.377,150,123.057C150,77.26,197.551,40,256,40c58.449,0,106,37.26,106,83.057
				c0,11.046,8.954,20,20,20c11.046,0,20-8.954,20-20c0-33.641-15.712-65.018-44.242-88.353C330.396,12.325,294.258,0,256,0
				s-74.396,12.325-101.758,34.704C125.712,58.039,110,89.416,110,123.057c0,39.464,14.998,71.758,45.85,98.725
				c5.807,5.077,12.032,9.788,18.511,14.218H20c-11.046,0-20,8.954-20,20c0,11.046,8.954,20,20,20h472c11.046,0,20-8.954,20-20
				C512,244.954,503.046,236,492,236z"/>
		</g>
	</g>
</g>
<g>
</g>
<g>
</g>
<g>
</g>
<g>
</g>
<g>
</g>
<g>
</g>
<g>
</g>
<g>
</g>
<g>
</g>
<g>
</g>
<g>
</g>
<g>
</g>
<g>
</g>
<g>
</g>
<g>
</g>
</svg>
